<?xml version="1.0" encoding="UTF-8"?> <svg xmlns="http://www.w3.org/2000/svg" viewBox="0 0 415.58 57.24"> <defs> <style>.cls-1{fill:#ef3340;}.cls-2{fill:#b00c2f;}</style> </defs> <title>logo</title> <g id="Слой_2" data-name="Слой 2"> <g id="pimu-logo-narrow"> <polygon id="right-tongue" class="cls-1" points="32.16 11.07 32.55 11.07 32.55 9.91 34.03 8.43 34.03 8.18 33.73 8.18 32.27 9.64 31.11 9.64 31.11 10.03 32.16 10.03 32.16 11.07"></polygon> <polygon id="left-tongue" class="cls-2" points="23.22 8.18 22.92 8.18 22.92 8.43 24.4 9.91 24.4 11.07 24.79 11.07 24.79 10.03 25.84 10.03 25.84 9.64 24.68 9.64 23.22 8.18"></polygon> <path id="right-snake" class="cls-2" d="M49.76,32.6a5.61,5.61,0,0,1,0-7.93l4.55-4.56a9,9,0,0,0,0-12.76L49.76,2.8c-3.52-3.52-9-3.75-12.25-.52L34.72,5.07,31.61,8.18H34v2.41l3.1-3.1,2.8-2.79c1.9-1.91,5.22-1.67,7.41.51L51.9,9.77a5.63,5.63,0,0,1,0,7.93l-4.56,4.55a9,9,0,0,0,0,12.76l4.56,4.56a5.63,5.63,0,0,1,0,7.93l-4.56,4.55a5.47,5.47,0,0,1-7.72.21l-8.73-8.73L28.47,46h0l8.73,8.73a8.9,8.9,0,0,0,12.56-.21l4.55-4.55a9,9,0,0,0,0-12.77ZM35,7.28a.53.53,0,0,1-.75,0,.54.54,0,0,1,0-.76.54.54,0,0,1,.75,0A.54.54,0,0,1,35,7.28ZM28.47,22.49l-2.41,2.42-3.17-3.18-3.45,3.45c-1.9,1.91-1.67,5.23.51,7.42l8.52,8.52-2.41,2.41L17.54,35C14,31.5,13.79,26,17,22.77l5.87-5.86,2.41,2.41Z"></path> <path id="left-snake" class="cls-1" d="M39.93,22.77l-3.45-3.45h0l-2.42-2.41-2.41,2.41h0l-5.59,5.59,2.41,2.41,5.59-5.59,3.45,3.45c1.9,1.91,1.67,5.23-.52,7.42L17.33,52.26a5.47,5.47,0,0,1-7.72-.21L5.05,47.5a5.63,5.63,0,0,1,0-7.93L9.61,35a9,9,0,0,0,0-12.76L5.05,17.7a5.63,5.63,0,0,1,0-7.93L9.61,5.21C11.79,3,15.12,2.79,17,4.7l2.8,2.79,3.1,3.1V8.18h2.42L22.23,5.07,19.44,2.28c-3.24-3.23-8.73-3-12.25.52L2.64,7.35a9,9,0,0,0,0,12.76l4.55,4.56a5.61,5.61,0,0,1,0,7.93L2.64,37.15a9,9,0,0,0,0,12.77l4.55,4.55a8.9,8.9,0,0,0,12.56.21L28.47,46l2.42-2.42L39.41,35C42.93,31.5,43.16,26,39.93,22.77ZM22,6.52a.53.53,0,0,1,.75,0,.54.54,0,0,1,0,.76.53.53,0,0,1-.75,0A.54.54,0,0,1,22,6.52Z"></path> <path d="M78.32,26V7.54H88.83V26H87.38V8.8H79.82V26Z"></path> <path d="M92.49,12h1.39v1.47a4.41,4.41,0,0,1,3.48-1.66,3.66,3.66,0,0,1,3.9,3.74v6.85a3.66,3.66,0,0,1-3.9,3.74,4.39,4.39,0,0,1-3.48-1.63v6.71H92.49Zm7.37,10.4V15.57A2.66,2.66,0,0,0,96.94,13c-1.77,0-3,1-3.06,2.55v6.87C93.94,24,95.17,25,96.94,25A2.66,2.66,0,0,0,99.86,22.42Z"></path> <path d="M112.16,14.65,105.63,26h-1.16V12h1.4V23.34L112.4,12h1.16V26h-1.4Z"></path> <path d="M117,12h3.85c2.66,0,4.37,1.34,4.37,3.31v.61a3.06,3.06,0,0,1-1.92,2.84,3.28,3.28,0,0,1,2.4,3.14v.6c0,2.06-1.72,3.45-4.35,3.45H117Zm3.82,1.18h-2.42v5.08h2.42c1.87,0,3-.92,3-2.29v-.52C123.81,14.1,122.67,13.2,120.8,13.2Zm.48,6.24h-2.9v5.35h2.9c1.87,0,3-.95,3-2.37v-.61C124.28,20.39,123.15,19.44,121.28,19.44Z"></path> <path d="M132.71,26.16c-2.63,0-4.48-1.63-4.48-4V15.83c0-2.37,1.85-4,4.48-4s4.45,1.63,4.45,4v6.33C137.16,24.53,135.32,26.16,132.71,26.16Zm3-10.43a3.09,3.09,0,0,0-6.13,0v6.53a3.09,3.09,0,0,0,6.13,0Z"></path> <path d="M138.74,24.84c1.48,0,2.24-1.21,2.24-11.11V12h7.61V26H147.2V13.2h-4.93v.53c0,10.8-.89,12.3-3.53,12.3h-.34V24.84Z"></path> <path d="M155.94,18.73,151,12h1.53l4.82,6.71L152.17,26h-1.52ZM157.71,12h1.34V26h-1.34Zm1.63,6.71L164.16,12h1.53l-4.9,6.71L166.05,26h-1.52Z"></path> <path d="M175.14,15.73a3.09,3.09,0,0,0-6.13,0v6.53a3.09,3.09,0,0,0,6.13,0v-1h1.4v.85c0,2.37-1.84,4-4.45,4s-4.48-1.63-4.48-4V15.83c0-2.37,1.84-4,4.48-4s4.45,1.63,4.45,4v.85h-1.4Z"></path> <path d="M179.52,12h1.39V26h-1.39Zm1.76,6.71,5-6.71h1.61l-5.08,6.71,5.5,7.24h-1.6Z"></path> <path d="M198.06,14.65,191.53,26h-1.16V12h1.39V23.34L198.3,12h1.15V26h-1.39Z"></path> <path d="M210.57,14.65,204,26h-1.16V12h1.4V23.34L210.81,12H212V26h-1.4Zm0-7.38V7.7c0,1.52-1.27,2.58-3.08,2.58s-3.09-1.06-3.09-2.58V7.27h1.11V7.8c0,.87.79,1.53,2,1.53s2-.66,2-1.53V7.27Z"></path> <path d="M228,14.65,221.45,26h-1.16V12h1.4V23.34L228.22,12h1.16V26H228Z"></path> <path d="M240.12,15.73a3.09,3.09,0,0,0-6.13,0v6.53a3.09,3.09,0,0,0,6.13,0v-1h1.4v.85c0,2.37-1.84,4-4.45,4s-4.48-1.63-4.48-4V15.83c0-2.37,1.84-4,4.48-4s4.45,1.63,4.45,4v.85h-1.4Z"></path> <path d="M251.82,15.73a3.09,3.09,0,0,0-6.14,0v6.53a3.09,3.09,0,0,0,6.14,0v-1h1.39v.85c0,2.37-1.84,4-4.45,4s-4.47-1.63-4.47-4V15.83c0-2.37,1.84-4,4.47-4s4.45,1.63,4.45,4v.85h-1.39Z"></path> <path d="M255.14,24.84c1.47,0,2.24-1.21,2.24-11.11V12H265V26h-1.4V13.2h-4.92v.53c0,10.8-.9,12.3-3.53,12.3h-.34V24.84Z"></path> <path d="M268.2,15.83c0-2.37,1.85-4,4.48-4s4.45,1.63,4.45,4v3.72H269.6v2.71a3.09,3.09,0,0,0,6.13,0v-.63h1.4v.53c0,2.37-1.84,4-4.45,4s-4.48-1.63-4.48-4Zm1.4-.1v2.63h6.13V15.73a3.09,3.09,0,0,0-6.13,0Z"></path> <path d="M278.29,24.79h1.08c1.21-.92,1.55-2,1.55-11.06V12h7.59V24.79h1.66v4.79h-1.4V26h-9.08v3.61h-1.4Zm2.69,0h6.13V13.2h-4.87v.53C282.24,20.92,282,23.5,281,24.79Z"></path> <path d="M296.28,26.16c-2.63,0-4.48-1.63-4.48-4V15.83c0-2.37,1.85-4,4.48-4s4.45,1.63,4.45,4v6.33C300.73,24.53,298.89,26.16,296.28,26.16Zm3.06-10.43a3.09,3.09,0,0,0-6.14,0v6.53a3.09,3.09,0,0,0,6.14,0Z"></path> <path d="M304,12h3.84c2.66,0,4.37,1.34,4.37,3.31v.61a3.06,3.06,0,0,1-1.92,2.84,3.27,3.27,0,0,1,2.4,3.14v.6c0,2.06-1.71,3.45-4.35,3.45H304Zm3.81,1.18h-2.42v5.08h2.42c1.87,0,3-.92,3-2.29v-.52C310.77,14.1,309.63,13.2,307.76,13.2Zm.48,6.24h-2.9v5.35h2.9c1.87,0,3-.95,3-2.37v-.61C311.24,20.39,310.11,19.44,308.24,19.44Z"></path> <path d="M315.22,16.57v-.74a4.31,4.31,0,0,1,8.59,0V26h-1.4v-1.5a4.64,4.64,0,0,1-3.61,1.69c-2.26,0-3.74-1.37-3.74-3.48v-.89c0-2.16,1.79-3.4,4.32-3.56l3-.18V15.73a2.9,2.9,0,0,0-5.79,0v.84Zm7.19,2.66-3,.19c-1.94.1-3,1-3,2.26v1c0,1.35,1.08,2.29,2.76,2.29s3.19-1.1,3.19-2.66Z"></path> <path d="M325.52,12H335V13.2H331V26h-1.4V13.2h-4Z"></path> <path d="M336.82,15.83c0-2.37,1.84-4,4.48-4s4.45,1.63,4.45,4v3.72h-7.53v2.71a3.09,3.09,0,0,0,6.13,0v-.63h1.4v.53c0,2.37-1.85,4-4.45,4s-4.48-1.63-4.48-4Zm1.4-.1v2.63h6.13V15.73a3.09,3.09,0,0,0-6.13,0Z"></path> <path d="M347.2,24.84c1.47,0,2.24-1.21,2.24-11.11V12h7.61V26h-1.4V13.2h-4.92v.53c0,10.8-.9,12.3-3.53,12.3h-.34V24.84Z"></path> <path d="M360.47,12h1.4v5.42h2.79c2.61,0,4.35,1.53,4.35,3.93v.68c0,2.4-1.74,3.92-4.35,3.92h-4.19Zm1.4,6.61v6.16h2.76c1.82,0,3-1,3-2.61v-.95c0-1.6-1.16-2.6-3-2.6Z"></path> <path d="M378.75,15.73a3.09,3.09,0,0,0-6.13,0v6.53a3.09,3.09,0,0,0,6.13,0v-1h1.4v.85c0,2.37-1.85,4-4.45,4s-4.48-1.63-4.48-4V15.83c0-2.37,1.84-4,4.48-4s4.45,1.63,4.45,4v.85h-1.4Z"></path> <path d="M383.13,12h1.39V26h-1.39Zm1.76,6.71,5-6.71h1.61l-5.08,6.71,5.5,7.24h-1.6Z"></path> <path d="M401.67,14.65,395.14,26H394V12h1.39V23.34L401.91,12h1.15V26h-1.39Z"></path> <path d="M414.18,14.65,407.65,26h-1.16V12h1.39V23.34L414.42,12h1.16V26h-1.4Zm-.05-7.38V7.7c0,1.52-1.27,2.58-3.08,2.58S408,9.22,408,7.7V7.27h1.11V7.8c0,.87.79,1.53,2,1.53s2-.66,2-1.53V7.27Z"></path> <path d="M78.11,38h1.18l4.61,9.87L88.48,38h1.19V52H88.4V41L84.24,50h-.68L79.4,41V52H78.11Z"></path> <path d="M92.88,41.83c0-2.37,1.85-4,4.48-4s4.45,1.63,4.45,4v3.72H94.28v2.71a3.09,3.09,0,0,0,6.14,0v-.63h1.39v.53c0,2.37-1.84,4-4.45,4s-4.48-1.63-4.48-4Zm1.4-.1v2.63h6.14V41.73a3.09,3.09,0,0,0-6.14,0Z"></path> <path d="M103,50.79h1.08c1.21-.92,1.56-2,1.56-11.06V38h7.58V50.79h1.66v4.79h-1.4V52h-9.08v3.61H103Zm2.69,0h6.13V39.2h-4.87v.53C106.92,46.92,106.66,49.5,105.66,50.79Z"></path> <path d="M124.7,40.65,118.17,52H117V38h1.4V49.34L124.94,38h1.16V52h-1.4Z"></path> <path d="M129.52,38h1.4V50.79h6V38h1.39V50.79h2.08v4.79H139V52h-9.46Z"></path> <path d="M150,40.65,143.46,52H142.3V38h1.39V49.34L150.22,38h1.16V52H150Z"></path> <path d="M162.18,45.36h-6V52h-1.4V38h1.4v6.16h6V38h1.4V52h-1.4Z"></path> <path d="M174.33,41.73a3.09,3.09,0,0,0-6.14,0v6.53a3.09,3.09,0,0,0,6.14,0v-.95h1.39v.85c0,2.37-1.84,4-4.45,4s-4.48-1.63-4.48-4V41.83c0-2.37,1.85-4,4.48-4s4.45,1.63,4.45,4v.85h-1.39Z"></path> <path d="M178.7,38h1.4V52h-1.4Zm1.76,6.71,5-6.71h1.6L182,44.73,187.5,52h-1.61Z"></path> <path d="M197.24,40.65,190.71,52h-1.16V38H191V49.34L197.48,38h1.16V52h-1.4Z"></path> <path d="M209.75,40.65,203.22,52h-1.16V38h1.4V49.34L210,38h1.16V52h-1.4Zm-.05-7.38v.43c0,1.52-1.26,2.58-3.08,2.58s-3.08-1.06-3.08-2.58v-.43h1.1v.53c0,.87.79,1.53,2,1.53s2-.66,2-1.53v-.53Z"></path> <path d="M222.08,57.24h-1.32L222.45,52,218.1,38h1.35L223.13,50,227,38h1.35Z"></path> <path d="M237.8,45.36h-6V52h-1.4V38h1.4v6.16h6V38h1.4V52h-1.4Z"></path> <path d="M250.32,40.65,243.79,52h-1.16V38H244V49.34L250.55,38h1.16V52h-1.39Z"></path> <path d="M255.14,38H259c2.66,0,4.37,1.34,4.37,3.31v.61a3.06,3.06,0,0,1-1.92,2.84,3.27,3.27,0,0,1,2.4,3.14v.6c0,2.06-1.71,3.45-4.35,3.45h-4.34ZM259,39.2h-2.43v5.08H259c1.87,0,3-.92,3-2.29v-.52C262,40.1,260.83,39.2,259,39.2Zm.47,6.24h-2.9v5.35h2.9c1.87,0,3-.95,3-2.37v-.61C262.43,46.39,261.3,45.44,259.43,45.44Z"></path> <path d="M266.38,41.83c0-2.37,1.85-4,4.48-4s4.45,1.63,4.45,4v3.72h-7.53v2.71a3.09,3.09,0,0,0,6.14,0v-.63h1.39v.53c0,2.37-1.84,4-4.45,4s-4.48-1.63-4.48-4Zm1.4-.1v2.63h6.14V41.73a3.09,3.09,0,0,0-6.14,0Z"></path> <path d="M278.4,38h1.39v1.47a4.39,4.39,0,0,1,3.48-1.66,3.66,3.66,0,0,1,3.9,3.74v6.85a3.66,3.66,0,0,1-3.9,3.74,4.37,4.37,0,0,1-3.48-1.63v6.71H278.4Zm7.37,10.4V41.57A2.66,2.66,0,0,0,282.85,39c-1.77,0-3,1-3.06,2.55v6.87c0,1.51,1.29,2.53,3.06,2.53A2.66,2.66,0,0,0,285.77,48.42Z"></path> <path d="M297.7,41.73a3.09,3.09,0,0,0-6.13,0v6.53a3.09,3.09,0,0,0,6.13,0v-.95h1.4v.85c0,2.37-1.85,4-4.45,4s-4.48-1.63-4.48-4V41.83c0-2.37,1.84-4,4.48-4s4.45,1.63,4.45,4v.85h-1.4Z"></path> <path d="M309.77,40.65,303.24,52h-1.16V38h1.39V49.34L310,38h1.16V52h-1.39Z"></path> <path d="M313.53,38H323V39.2H319V52h-1.4V39.2h-4Z"></path> <path d="M324.83,41.83c0-2.37,1.85-4,4.48-4s4.45,1.63,4.45,4v3.72h-7.53v2.71a3.09,3.09,0,0,0,6.14,0v-.63h1.39v.53c0,2.37-1.84,4-4.45,4s-4.48-1.63-4.48-4Zm1.4-.1v2.63h6.14V41.73a3.09,3.09,0,0,0-6.14,0Z"></path> <path d="M335.29,38h9.48V39.2h-4V52h-1.4V39.2h-4Z"></path> </g> </g> </svg> 